<?xml version="1.0" encoding="UTF-8"?>
<svg id="Capa_2" data-name="Capa 2" xmlns="http://www.w3.org/2000/svg" viewBox="0 0 686.66 740.63">
  <g id="Capa_2-2" data-name="Capa 2">
    <g id="Capa_1-2" data-name="Capa 1-2">
      <path d="M686.63,208.64c0-111.36-87.29-202.33-197.18-208.24v-.4H0s0,530.98,0,530.98C0,642.31,97.65,734.6,218.88,740.58h257.55s210.23.05,210.23.05l-.03-531.99ZM208.69,330.74l23.91-23.91.62-.98,71.22-71.22c24.85-24.85,59.19-38.03,94.42-36.13,49.07,2.35,90.71,32.85,108.66,79.58,17.93,46.67,7.33,97.23-27.68,131.96l-16.42,16.43-.62.49c-1.35,1.49-48.33,48.68-68.4,68.84l-10.3,10.35c-24.85,24.85-59.27,38.07-94.42,36.13-49.08-2.35-90.72-32.85-108.67-79.58-17.93-46.66-7.33-97.22,27.67-131.95h.01ZM4.33,531V4.54h216.24c-53.44,12.8-126.85,54.32-171.53,142.55-2.01,3.96-1.45,7.71.46,10.58,4.14,6.2,13.5,5.65,17.78-.46,55.31-78.92,113.59-98.02,116.54-98.94,2.85-.9,5.88.7,6.78,3.55,1.29,4.14-2.63,7.2-6.29,7.8-14.8,5.86-87.07,39.27-141,149.94-.31.63-3.61,8.43-4.47,11.94-1.18,4.82.43,8.85,3.3,11.48,5.6,5.13,14.69,2.94,18.23-3.78,50.26-95.63,113.42-122.34,116.45-123.57,2.75-1.13,5.92.21,7.05,2.98.91,2.76-.62,5.74-2.98,7.05-.91.5-76.1,32.57-125.94,150.39-1.5,3.54-2.36,7.31-2.91,11.11v.06c-1.73,11.75,13,17.88,18.77,7.5.6-1.09,2.04-3.53,3.93-6.71,44.4-86.13,99.92-113,102.73-114.31,2.7-1.27,5.93-.09,7.19,2.62,1.26,2.71.09,5.92-2.61,7.19-.73.35-68.4,33.36-112.64,142.21-7.35,14.48,15.4,23.45,21.16,8.77,59.46-117.29,93.12-118.02,107.59-120.52,5.17-.89,13.51.4,20.43,4.73.47.29.9.58,1.27.87,3.65,2.8,6.77,6.28,9.03,10.3,5.1,9.11,5.73,20.61,1.65,30.22-2.71,6.38-7.26,11.76-11.38,17.34-1.7,2.3-3.98,5.79-5.95,8.89-2.81,4.43-4.87,9.28-6.11,14.38-1.89,7.79,5.16,14.61,12.53,13.01l-13.99,13.99c-36.23,35.95-47.21,88.29-28.66,136.57,18.58,48.36,61.69,79.92,112.49,82.35,2.3.12,4.6.18,6.89.18,33.94,0,66.72-13.49,90.82-37.59l10.3-10.35c38.52-38.7,64.99-65.31,68.27-68.71l3.6-3.57c7.15-1.13,13.79,5.54,11.95,13.12-1.24,5.1-3.3,9.95-6.11,14.38-1.97,3.1-4.25,6.59-5.95,8.89-4.12,5.57-8.67,10.96-11.38,17.34-4.08,9.62-3.45,21.11,1.65,30.22,2.25,4.02,5.37,7.5,9.03,10.3.38.29.81.58,1.27.87,6.92,4.32,15.26,5.62,20.43,4.73,14.47-2.51,48.13-3.24,107.59-120.52,5.76-14.67,28.52-5.71,21.16,8.77-44.24,108.85-111.91,141.86-112.64,142.21-2.7,1.27-3.87,4.48-2.61,7.19s4.49,3.88,7.19,2.62c2.8-1.31,58.33-28.18,102.73-114.31,1.89-3.18,3.33-5.62,3.93-6.71,5.77-10.38,20.5-4.25,18.77,7.5v.06c-.55,3.8-1.42,7.57-2.91,11.11-49.84,117.82-125.03,149.89-125.94,150.39-2.36,1.31-3.89,4.29-2.98,7.05,1.13,2.77,4.3,4.1,7.05,2.98,3.03-1.23,66.19-27.94,116.45-123.57,3.53-6.73,12.63-8.92,18.23-3.78,2.87,2.63,4.48,6.66,3.3,11.48-.86,3.51-4.17,11.31-4.47,11.94-53.93,110.67-126.2,144.08-141,149.94-3.66.6-7.57,3.67-6.29,7.8.9,2.85,3.93,4.45,6.78,3.55,2.95-.92,61.23-20.02,116.54-98.94,4.28-6.11,13.63-6.66,17.78-.46,1.92,2.87,2.47,6.62.46,10.58-45.13,89.12-119.6,130.61-173.17,142.95l-249.93-.38c-118.83-5.86-211.91-95.84-211.91-204.86l-.02-.02Z"/>
    </g>
  </g>
</svg>