<?xml version="1.0" encoding="UTF-8"?>
<svg id="Capa_2" data-name="Capa 2" xmlns="http://www.w3.org/2000/svg" viewBox="0 0 1056.95 590.98">
  <g id="Capa_1-2" data-name="Capa 1">
    <g>
      <path d="M1056.95,238.58c-9.81,14.72-22.07,25.93-36.78,33.63-14.72,7.71-30.01,11.56-45.89,11.56-4.44,0-9.34-.35-14.71-1.05-5.38-.7-10.81-1.81-16.29-3.33-5.49-1.52-10.81-3.5-15.94-5.95-5.14-2.45-9.81-5.31-14.02-8.58-2.34,2.1-5.02,4.26-8.06,6.48-3.04,2.22-6.48,4.26-10.34,6.13-3.85,1.87-8.06,3.39-12.61,4.55-4.55,1.17-9.63,1.75-15.24,1.75-7.71,0-14.66-1.23-20.84-3.68-6.19-2.45-11.45-5.78-15.77-9.98-4.32-4.21-7.65-9.17-9.98-14.89-2.34-5.72-3.5-11.85-3.5-18.39,0-7.71,1.46-14.94,4.38-21.73,2.92-6.77,6.83-13.08,11.74-18.92,4.9-5.84,10.45-10.98,16.64-15.41,6.19-4.43,12.55-8.06,19.09-10.86,0-7.47,1.58-15.7,4.73-24.69,3.15-8.99,7.53-17.4,13.14-25.23,5.6-7.82,12.14-14.36,19.62-19.62,7.47-5.25,15.53-7.88,24.17-7.88,6.31,0,11.56,1.81,15.76,5.43,4.21,3.63,6.31,8.82,6.31,15.59,0,6.08-2.51,11.74-7.53,16.99-5.02,5.26-11.04,10.16-18.04,14.72-7.01,4.55-14.19,8.58-21.54,12.08-7.36,3.51-13.26,6.54-17.69,9.11.23,15.89,3.62,31.07,10.16,45.55,6.54,14.48,15.3,27.33,26.28,38.54,8.64-7.71,16.46-15.99,23.47-24.88,7.01-8.87,13.72-17.11,20.15-24.7,6.42-7.58,12.84-13.89,19.27-18.92,6.42-5.02,13.25-7.53,20.49-7.53,6.07,0,11.15,1.63,15.24,4.9,4.08,3.27,6.13,7.59,6.13,12.96,0,1.87-.53,3.97-1.58,6.31-1.05,2.34-2.4,4.32-4.03,5.96-1.87-3.97-4.91-7.3-9.11-9.99-4.21-2.68-9.34-4.03-15.41-4.03-4.44,0-8.58.88-12.44,2.63-3.85,1.75-7.48,4.09-10.86,7.01-3.39,2.92-6.72,6.25-9.99,9.98-3.27,3.74-6.54,7.71-9.81,11.91-10.51,12.38-20.09,22.66-28.73,30.83,7.01,7.01,15.41,12.96,25.22,17.87,9.81,4.9,19.85,7.36,30.13,7.36,7.24,0,14.36-1.05,21.37-3.15,7.01-2.1,13.66-5.02,19.97-8.76,6.31-3.73,12.14-8.06,17.52-12.96,5.37-4.9,10.04-10.28,14.01-16.12l1.75,1.4ZM835.89,231.23c0,5.61.87,11.1,2.63,16.46,1.75,5.37,4.2,10.11,7.36,14.19,3.15,4.09,6.95,7.36,11.39,9.81,4.43,2.46,9.46,3.68,15.06,3.68,8.64,0,15.99-1.28,22.07-3.85,6.07-2.57,11.33-5.61,15.76-9.11-12.85-10.74-22.95-24-30.3-39.76-7.36-15.77-11.03-32.06-11.03-48.88-5.38,2.34-10.11,5.55-14.19,9.64-4.09,4.09-7.53,8.71-10.34,13.84-2.8,5.14-4.91,10.63-6.31,16.46-1.4,5.84-2.1,11.68-2.1,17.52ZM938.54,111.76c0-10.04-4.2-15.07-12.61-15.07-5.14,0-10.57,2.4-16.29,7.18-5.73,4.79-10.57,11.74-14.54,20.85-3.5,8.18-5.61,15.36-6.31,21.54-.7,6.19-1.05,11.62-1.05,16.29,6.77-3.03,13.25-6.19,19.44-9.46,6.19-3.27,11.62-6.89,16.29-10.86,4.67-3.97,8.35-8.46,11.04-13.49,2.68-5.02,4.03-10.68,4.03-16.99Z"/>
      <path d="M850.58,314.14s.07,133.49-.22,136.56c-1.03,19.59-23.61,27.17-39.75,20.77-5.7-2.26-10.12-6.68-12.76-12.1-1.7-3.49-2.31-7.4-2.41-11.29-1.62-58.08-38.05-109.29-97.03-123.44-16.94-4.79-36.38-7.18-58.33-7.18h-208.8v262.75h208.8c27.09,0,50.39-3.73,69.89-11.21,13.87-5.32,25.93-11.95,36.25-19.87,26.13,26.45,72.62,44.22,112.89,41.58,39.15.42,71.27-8.61,99.37-30.99,26.41-20.03,37.63-48.95,37.48-84.79v-160.8h-145.39ZM647.93,463.51l-35.17,35.17c-18.04,18.04-47.28,18.04-65.31,0-18.04-18.04-18.04-47.28,0-65.31l35.17-35.17c18.04-18.04,47.28-18.04,65.31,0h0c18.04,18.04,18.04,47.28,0,65.31Z"/>
      <path d="M612.88,192.13c-18.04,18.04-47.28,18.04-65.31,0-18.04-18.04-18.04-47.28,0-65.31l35.17-35.17c18.04-18.04,47.28-18.04,65.31,0h0c10.42,10.42,14.68,24.57,13.04,38.15l126.04-27.01c-5.1-18.47-13.8-34.66-26.24-48.48-15.76-17.51-37.2-30.94-64.29-40.29-27.1-9.34-60.03-14.02-98.8-14.02-21.96,0-42.63,1.82-62.01,5.43-19.39,3.63-37.08,9.17-53.08,16.64-16,7.48-29.78,16.82-41.34,28.03-7.57,7.34-13.9,15.68-19.22,24.83V10.51h-176.57l-28.03,129.97c0,.24-.06.41-.17.53-.12.12-.24.12-.35,0-.12-.11-.18-.29-.18-.53-3.27-14.48-6.6-28.96-9.98-43.44-3.39-14.48-6.72-28.9-9.99-43.26-3.27-14.36-6.65-28.79-10.16-43.27H0v210.03c0,29.12,23.61,52.73,52.73,52.73h22.42c29.12,0,52.73-23.61,52.73-52.73v-91.96c0-.23.11-.35.35-.35s.35.12.35.35c5.84,24.06,11.56,48.12,17.17,72.17,2.48,10.64,4.98,21.29,7.5,31.97,5.61,23.74,26.77,40.54,51.17,40.54h6.22c24.38,0,45.56-16.77,51.15-40.5l24.79-105.24c0-.23.05-.35.18-.35h.35c.12,0,.18.12.18.35v93.19c0,29.02,23.53,52.55,52.55,52.55h29.78c29.02,0,52.55-23.53,52.55-52.55v-11.78c5.01,8.52,11.09,16.44,18.35,23.7,7.94,7.94,17.11,15.06,27.5,21.37,10.39,6.31,22.19,11.68,35.38,16.12,13.19,4.43,27.62,7.82,43.27,10.16,15.65,2.33,32.7,3.5,51.15,3.5,31.3,0,58.45-3.33,81.45-9.98,23-6.66,42.27-15.82,57.81-27.5,15.53-11.68,27.68-25.1,36.44-40.29,8.76-15.18,14.42-31.41,16.99-48.7l-133.29-13.48c-2.22,4.75-44.32,48.31-44.32,48.31Z"/>
    </g>
  </g>
</svg>